<svg width="84" height="60" viewBox="0 0 84 60" fill="none" xmlns="http://www.w3.org/2000/svg">
<path d="M73.2334 12.9093H72.8963C72.6312 12.2018 72.2165 11.56 71.6804 11.0277C71.1442 10.4954 70.4994 10.0852 69.7901 9.82528L43.6353 0.314428C42.4804 -0.104809 41.2149 -0.104809 40.06 0.314428L13.9052 9.82496C13.1959 10.085 12.5511 10.4952 12.0151 11.0276C11.479 11.5599 11.0643 12.2018 10.7993 12.9093H10.4619C7.6882 12.9124 5.02898 14.0156 3.06766 15.9769C1.10635 17.9382 0.00311518 20.5975 0 23.3712L0 31.2176C0.00311518 33.9913 1.10635 36.6505 3.06766 38.6119C5.02898 40.5732 7.6882 41.6764 10.4619 41.6795H12.161C14.3057 46.3808 18.4561 50.5064 24.4642 53.8441C31.337 57.662 38.694 59.3889 40.7848 59.827C41.4856 59.9751 42.2097 59.9751 42.9105 59.827C45.0013 59.3889 52.3583 57.662 59.2311 53.8441C65.2392 50.5061 69.3893 46.3812 71.5343 41.6795H73.2334C76.0071 41.6764 78.6663 40.5732 80.6276 38.6119C82.5889 36.6505 83.6922 33.9913 83.6953 31.2176V23.3712C83.6922 20.5975 82.5889 17.9382 80.6276 15.9769C78.6663 14.0156 76.0071 12.9124 73.2334 12.9093ZM10.4619 36.4486C9.07505 36.447 7.74544 35.8954 6.76479 34.9147C5.78413 33.9341 5.23251 32.6045 5.23096 31.2176V23.3712C5.23251 21.9843 5.78413 20.6547 6.76479 19.674C7.74544 18.6934 9.07505 18.1418 10.4619 18.1402V33.8331C10.4625 34.708 10.5229 35.5819 10.6427 36.4486H10.4619ZM54.925 39.064H28.7703C28.0766 39.064 27.4113 38.7885 26.9208 38.298C26.4303 37.8075 26.1548 37.1422 26.1548 36.4486C26.1548 35.7549 26.4303 35.0896 26.9208 34.5991C27.4113 34.1086 28.0766 33.8331 28.7703 33.8331H54.925C55.6187 33.8331 56.284 34.1086 56.7745 34.5991C57.2649 35.0896 57.5405 35.7549 57.5405 36.4486C57.5405 37.1422 57.2649 37.8075 56.7745 38.298C56.284 38.7885 55.6187 39.064 54.925 39.064ZM54.925 28.6021H28.7703C28.0766 28.6021 27.4113 28.3266 26.9208 27.8361C26.4303 27.3456 26.1548 26.6803 26.1548 25.9866C26.1548 25.293 26.4303 24.6277 26.9208 24.1372C27.4113 23.6467 28.0766 23.3712 28.7703 23.3712H54.925C55.6187 23.3712 56.284 23.6467 56.7745 24.1372C57.2649 24.6277 57.5405 25.293 57.5405 25.9866C57.5405 26.6803 57.2649 27.3456 56.7745 27.8361C56.284 28.3266 55.6187 28.6021 54.925 28.6021ZM78.4643 31.2176C78.4628 32.6045 77.9111 33.9341 76.9305 34.9147C75.9498 35.8954 74.6202 36.447 73.2334 36.4486H73.0526C73.1724 35.5819 73.2328 34.708 73.2334 33.8331V18.1402C74.6202 18.1418 75.9498 18.6934 76.9305 19.674C77.9111 20.6547 78.4628 21.9843 78.4643 23.3712V31.2176Z" fill="#916EAE"/>
</svg>
