<svg width="242" height="67" viewBox="0 0 242 67" fill="none" xmlns="http://www.w3.org/2000/svg">
<path d="M73.2334 12.9093H72.8963C72.6312 12.2018 72.2165 11.56 71.6804 11.0277C71.1442 10.4954 70.4994 10.0852 69.7901 9.82529L43.6353 0.314428C42.4804 -0.104809 41.2149 -0.104809 40.06 0.314428L13.9052 9.82496C13.1959 10.085 12.5511 10.4952 12.0151 11.0276C11.479 11.5599 11.0643 12.2018 10.7993 12.9093H10.4619C7.6882 12.9124 5.02898 14.0156 3.06766 15.9769C1.10635 17.9382 0.00311518 20.5975 0 23.3712L0 31.2176C0.00311518 33.9913 1.10635 36.6505 3.06766 38.6119C5.02898 40.5732 7.6882 41.6764 10.4619 41.6795H12.161C14.3057 46.3808 18.4561 50.5064 24.4642 53.8441C31.337 57.662 38.694 59.3889 40.7848 59.827C41.4856 59.9751 42.2097 59.9751 42.9105 59.827C45.0013 59.3889 52.3583 57.662 59.2311 53.8441C65.2392 50.5061 69.3893 46.3812 71.5343 41.6795H73.2334C76.0071 41.6764 78.6663 40.5732 80.6276 38.6119C82.5889 36.6505 83.6922 33.9913 83.6953 31.2176V23.3712C83.6922 20.5975 82.5889 17.9382 80.6276 15.9769C78.6663 14.0156 76.0071 12.9124 73.2334 12.9093V12.9093ZM10.4619 36.4486C9.07505 36.447 7.74544 35.8954 6.76479 34.9147C5.78413 33.9341 5.23251 32.6045 5.23096 31.2176V23.3712C5.23251 21.9843 5.78413 20.6547 6.76479 19.674C7.74544 18.6934 9.07505 18.1418 10.4619 18.1402V33.8331C10.4625 34.708 10.5229 35.5819 10.6427 36.4486H10.4619ZM54.925 39.064H28.7703C28.0766 39.064 27.4113 38.7885 26.9208 38.298C26.4303 37.8075 26.1548 37.1422 26.1548 36.4486C26.1548 35.7549 26.4303 35.0896 26.9208 34.5991C27.4113 34.1086 28.0766 33.8331 28.7703 33.8331H54.925C55.6187 33.8331 56.284 34.1086 56.7745 34.5991C57.2649 35.0896 57.5405 35.7549 57.5405 36.4486C57.5405 37.1422 57.2649 37.8075 56.7745 38.298C56.284 38.7885 55.6187 39.064 54.925 39.064ZM54.925 28.6021H28.7703C28.0766 28.6021 27.4113 28.3266 26.9208 27.8361C26.4303 27.3456 26.1548 26.6803 26.1548 25.9866C26.1548 25.293 26.4303 24.6277 26.9208 24.1372C27.4113 23.6467 28.0766 23.3712 28.7703 23.3712H54.925C55.6187 23.3712 56.284 23.6467 56.7745 24.1372C57.2649 24.6277 57.5405 25.293 57.5405 25.9866C57.5405 26.6803 57.2649 27.3456 56.7745 27.8361C56.284 28.3266 55.6187 28.6021 54.925 28.6021ZM78.4643 31.2176C78.4628 32.6045 77.9112 33.9341 76.9305 34.9147C75.9498 35.8954 74.6202 36.447 73.2334 36.4486H73.0526C73.1724 35.5819 73.2328 34.708 73.2334 33.8331V18.1402C74.6202 18.1418 75.9498 18.6934 76.9305 19.674C77.9112 20.6547 78.4628 21.9843 78.4643 23.3712V31.2176Z" fill="#4285F4"/>
<path d="M99.1561 26V8.60715H101.94V10.8345C102.519 10.0811 103.234 9.48061 104.086 9.03296C104.937 8.57439 105.898 8.34511 106.968 8.34511C108.322 8.34511 109.419 8.62898 110.26 9.19674C111.101 9.76449 111.712 10.5342 112.094 11.506C112.651 10.5779 113.394 9.81908 114.322 9.22949C115.25 8.6399 116.336 8.34511 117.581 8.34511C119.459 8.34511 120.878 8.88556 121.839 9.96648C122.811 11.0474 123.297 12.4995 123.297 14.3229V26H120.512V15.24C120.512 14.8142 120.485 14.3556 120.43 13.8643C120.376 13.373 120.239 12.9144 120.021 12.4886C119.803 12.0519 119.453 11.697 118.973 11.4241C118.503 11.1402 117.843 10.9983 116.991 10.9983C115.867 10.9983 114.988 11.2712 114.354 11.8171C113.721 12.363 113.274 13.0291 113.011 13.8152C112.749 14.6013 112.618 15.3601 112.618 16.0916V26H109.851V15.3055C109.851 14.8797 109.818 14.4211 109.752 13.9298C109.698 13.4276 109.561 12.9581 109.343 12.5214C109.125 12.0737 108.781 11.7079 108.311 11.4241C107.853 11.1402 107.214 10.9983 106.395 10.9983C105.292 10.9983 104.413 11.2767 103.758 11.8335C103.103 12.3794 102.634 13.0618 102.35 13.8807C102.077 14.6996 101.94 15.5184 101.94 16.3373V26H99.1561ZM134.213 26.3275C132.225 26.3275 130.631 25.869 129.43 24.9518C128.229 24.0238 127.629 22.7409 127.629 21.1031C127.629 19.3999 128.278 18.117 129.578 17.2544C130.877 16.381 132.597 15.8405 134.737 15.6331C136.877 15.4147 138.4 15.2018 139.306 14.9944C140.212 14.776 140.665 14.4266 140.665 13.9462V13.8971C140.665 12.8926 140.256 12.1447 139.437 11.6534C138.618 11.1511 137.433 10.9 135.883 10.9C134.267 10.9 133.012 11.1839 132.116 11.7516C131.221 12.3085 130.773 13.2147 130.773 14.4703H128.022C128.022 13.171 128.355 12.0682 129.021 11.162C129.687 10.2449 130.61 9.54612 131.789 9.06572C132.979 8.58531 134.349 8.34511 135.899 8.34511C137.319 8.34511 138.596 8.56347 139.732 9.00021C140.878 9.42602 141.784 10.0647 142.45 10.9164C143.127 11.7571 143.466 12.7998 143.466 14.0445V22.7245C143.466 23.1067 143.482 23.4779 143.515 23.8382C143.548 24.1985 143.602 24.5151 143.679 24.7881C143.777 25.1156 143.886 25.3831 144.006 25.5906C144.126 25.7871 144.225 25.9236 144.301 26H141.501C141.337 25.8362 141.151 25.4705 140.944 24.9027C140.856 24.6625 140.791 24.3404 140.747 23.9364C140.147 24.657 139.29 25.2357 138.176 25.6725C137.062 26.1092 135.741 26.3275 134.213 26.3275ZM134.655 23.8218C135.779 23.8218 136.795 23.6526 137.701 23.3141C138.607 22.9647 139.328 22.4516 139.863 21.7746C140.398 21.0977 140.665 20.257 140.665 19.2525V17.0579C139.967 17.2763 139.159 17.4564 138.241 17.5984C137.324 17.7294 136.38 17.8386 135.408 17.9259C133.759 18.0788 132.515 18.3681 131.674 18.7939C130.844 19.2197 130.429 19.9349 130.429 20.9394C130.429 22.861 131.838 23.8218 134.655 23.8218ZM154.746 26.3275C153.359 26.3275 152.109 26.131 150.995 25.738C149.893 25.3449 149.019 24.7717 148.375 24.0183C147.742 23.254 147.425 22.326 147.425 21.2342V20.7265H150.226V21.0868C150.226 21.9711 150.635 22.6481 151.454 23.1176C152.273 23.5761 153.392 23.8054 154.811 23.8054C156.111 23.8054 157.197 23.6089 158.07 23.2158C158.944 22.8228 159.381 22.2113 159.381 21.3816C159.381 20.4753 158.955 19.8312 158.103 19.449C157.262 19.056 156.001 18.7175 154.32 18.4336C153.141 18.2262 152.049 17.9314 151.045 17.5492C150.04 17.1671 149.227 16.6376 148.604 15.9606C147.993 15.2837 147.687 14.3993 147.687 13.3075C147.687 12.2484 147.998 11.3531 148.621 10.6216C149.254 9.87913 150.106 9.31684 151.176 8.9347C152.246 8.54164 153.436 8.34511 154.746 8.34511C156.012 8.34511 157.181 8.5471 158.251 8.95108C159.321 9.35505 160.178 9.94464 160.822 10.7198C161.477 11.4841 161.804 12.4286 161.804 13.5531V13.8807H159.02V13.635C159.02 13.0018 158.818 12.4831 158.414 12.0792C158.01 11.6643 157.486 11.3586 156.842 11.162C156.198 10.9546 155.51 10.8509 154.779 10.8509C154.091 10.8509 153.414 10.9273 152.748 11.0801C152.082 11.2221 151.53 11.4623 151.094 11.8008C150.657 12.1392 150.439 12.6032 150.439 13.1928C150.439 14.0772 150.892 14.7105 151.798 15.0926C152.704 15.4748 153.916 15.8078 155.434 16.0916C156.646 16.31 157.759 16.6048 158.775 16.976C159.79 17.3472 160.603 17.8713 161.215 18.5483C161.826 19.2143 162.132 20.1096 162.132 21.2342C162.132 22.3587 161.794 23.3032 161.117 24.0675C160.451 24.8208 159.555 25.3886 158.431 25.7707C157.317 26.1419 156.089 26.3275 154.746 26.3275ZM166.457 26V0.402046H169.11V15.0435L176.628 8.60715H180.231L172.959 15.0107L180.296 26H177.299L171.174 16.583L169.11 18.3681V26H166.457ZM106.329 60.3275C104.899 60.3275 103.589 59.9836 102.399 59.2958C101.209 58.597 100.259 57.5761 99.5492 56.2332C98.8395 54.8793 98.4847 53.2307 98.4847 51.2872C98.4847 49.3765 98.845 47.7551 99.5656 46.4231C100.286 45.0911 101.242 44.0811 102.432 43.3933C103.622 42.6945 104.921 42.3451 106.329 42.3451C107.421 42.3451 108.464 42.5635 109.458 43.0002C110.451 43.426 111.308 44.0211 112.029 44.7853V34.402H114.829V60H112.029V57.8218C111.33 58.597 110.489 59.2084 109.507 59.6561C108.524 60.1037 107.465 60.3275 106.329 60.3275ZM106.723 57.6908C107.694 57.6908 108.579 57.456 109.376 56.9865C110.184 56.5171 110.828 55.8893 111.308 55.1031C111.789 54.3061 112.029 53.4163 112.029 52.4336V49.977C112.029 49.0271 111.778 48.17 111.275 47.4057C110.784 46.6415 110.134 46.0355 109.327 45.5878C108.519 45.1293 107.651 44.9 106.723 44.9C105.172 44.9 103.889 45.4241 102.874 46.4722C101.858 47.5095 101.351 49.1145 101.351 51.2872C101.351 53.449 101.858 55.0595 102.874 56.1185C103.9 57.1667 105.183 57.6908 106.723 57.6908ZM136.298 54.5299C136.221 55.458 135.856 56.3697 135.201 57.265C134.556 58.1493 133.628 58.8863 132.416 59.4759C131.205 60.0546 129.714 60.3439 127.945 60.3439C126.198 60.3439 124.659 59.9618 123.327 59.1975C121.995 58.4332 120.947 57.3741 120.182 56.0203C119.429 54.6664 119.052 53.1106 119.052 51.3527C119.052 49.573 119.435 48.0117 120.199 46.6688C120.963 45.3149 122.017 44.2558 123.36 43.4915C124.703 42.7272 126.237 42.3451 127.962 42.3451C129.72 42.3451 131.243 42.7272 132.531 43.4915C133.819 44.2558 134.813 45.304 135.512 46.636C136.211 47.9571 136.56 49.4638 136.56 51.1562C136.56 51.3309 136.554 51.5602 136.544 51.844C136.533 52.1279 136.516 52.319 136.494 52.4172H121.82C122.028 54.0987 122.677 55.4143 123.769 56.3642C124.861 57.3141 126.28 57.789 128.027 57.789C129.261 57.789 130.271 57.6253 131.057 57.2977C131.843 56.9593 132.433 56.5389 132.826 56.0367C133.23 55.5344 133.459 55.0322 133.514 54.5299H136.298ZM127.995 44.8672C126.368 44.8672 125.003 45.3203 123.9 46.2266C122.797 47.1219 122.12 48.3556 121.869 49.9279H133.563C133.465 48.5303 132.946 47.3402 132.007 46.3576C131.068 45.364 129.731 44.8672 127.995 44.8672ZM147.426 60.262C146.716 60.262 146.029 60.1529 145.363 59.9345C144.707 59.7052 144.172 59.2794 143.758 58.657C143.343 58.0238 143.135 57.1012 143.135 55.8893V45.0638H138.893V42.6071H141.612C142.114 42.6071 142.469 42.5799 142.677 42.5253C142.884 42.4598 143.01 42.3014 143.053 42.0503C143.108 41.7883 143.135 41.3679 143.135 40.7893V36.8423H145.936V42.6071H151.373V45.0638H145.936V54.8411C145.936 55.7692 146.045 56.4952 146.263 57.0193C146.493 57.5434 147 57.8054 147.786 57.8054C148.103 57.8054 148.403 57.7781 148.687 57.7235C148.971 57.6689 149.184 57.6144 149.326 57.5598V59.9836C149.14 60.0491 148.878 60.1092 148.54 60.1638C148.212 60.2293 147.841 60.262 147.426 60.262ZM170.94 54.5299C170.864 55.458 170.498 56.3697 169.843 57.265C169.199 58.1493 168.271 58.8863 167.059 59.4759C165.847 60.0546 164.356 60.3439 162.588 60.3439C160.841 60.3439 159.301 59.9618 157.969 59.1975C156.637 58.4332 155.589 57.3741 154.825 56.0203C154.071 54.6664 153.695 53.1106 153.695 51.3527C153.695 49.573 154.077 48.0117 154.841 46.6688C155.605 45.3149 156.659 44.2558 158.002 43.4915C159.345 42.7272 160.879 42.3451 162.604 42.3451C164.362 42.3451 165.885 42.7272 167.173 43.4915C168.462 44.2558 169.455 45.304 170.154 46.636C170.853 47.9571 171.202 49.4638 171.202 51.1562C171.202 51.3309 171.197 51.5602 171.186 51.844C171.175 52.1279 171.158 52.319 171.137 52.4172H156.462C156.67 54.0987 157.319 55.4143 158.411 56.3642C159.503 57.3141 160.922 57.789 162.669 57.789C163.903 57.789 164.913 57.6253 165.699 57.2977C166.485 56.9593 167.075 56.5389 167.468 56.0367C167.872 55.5344 168.101 55.0322 168.156 54.5299H170.94ZM162.637 44.8672C161.01 44.8672 159.645 45.3203 158.542 46.2266C157.44 47.1219 156.763 48.3556 156.512 49.9279H168.205C168.107 48.5303 167.588 47.3402 166.649 46.3576C165.71 45.364 164.373 44.8672 162.637 44.8672ZM183.796 60.3275C182.136 60.3275 180.63 59.9672 179.276 59.2466C177.922 58.5151 176.846 57.4724 176.049 56.1185C175.263 54.7647 174.87 53.1542 174.87 51.2872C174.87 49.4202 175.263 47.8206 176.049 46.4886C176.846 45.1457 177.922 44.1193 179.276 43.4096C180.63 42.7 182.136 42.3451 183.796 42.3451C185.477 42.3451 186.918 42.6781 188.119 43.3441C189.32 44.0101 190.238 44.8454 190.871 45.8499C191.515 46.8544 191.837 47.8698 191.837 48.8961V49.0107H189.069C189.069 48.9561 189.064 48.8961 189.053 48.8306C189.042 48.7542 189.031 48.6777 189.02 48.6013C188.878 47.5095 188.327 46.6196 187.366 45.9318C186.416 45.2439 185.221 44.9 183.779 44.9C182.699 44.9 181.694 45.1347 180.766 45.6042C179.849 46.0628 179.106 46.767 178.539 47.7169C177.982 48.6559 177.703 49.846 177.703 51.2872C177.703 52.7175 177.982 53.913 178.539 54.8739C179.095 55.8347 179.832 56.5607 180.75 57.0521C181.678 57.5325 182.688 57.7727 183.779 57.7727C185.548 57.7727 186.853 57.3687 187.694 56.5607C188.545 55.7528 189.004 54.8138 189.069 53.7438H191.837C191.837 54.792 191.526 55.8238 190.904 56.8392C190.292 57.8436 189.391 58.6789 188.201 59.3449C187.011 60 185.543 60.3275 183.796 60.3275ZM202.7 60.262C201.99 60.262 201.302 60.1529 200.636 59.9345C199.981 59.7052 199.446 59.2794 199.031 58.657C198.617 58.0238 198.409 57.1012 198.409 55.8893V45.0638H194.167V42.6071H196.886C197.388 42.6071 197.743 42.5799 197.951 42.5253C198.158 42.4598 198.284 42.3014 198.327 42.0503C198.382 41.7883 198.409 41.3679 198.409 40.7893V36.8423H201.21V42.6071H206.647V45.0638H201.21V54.8411C201.21 55.7692 201.319 56.4952 201.537 57.0193C201.766 57.5434 202.274 57.8054 203.06 57.8054C203.377 57.8054 203.677 57.7781 203.961 57.7235C204.245 57.6689 204.458 57.6144 204.6 57.5598V59.9836C204.414 60.0491 204.152 60.1092 203.814 60.1638C203.486 60.2293 203.115 60.262 202.7 60.262ZM217.878 60.3112C216.131 60.3112 214.586 59.9236 213.243 59.1484C211.911 58.3623 210.863 57.2923 210.099 55.9384C209.345 54.5736 208.968 53.0232 208.968 51.2872C208.968 49.5512 209.345 48.0117 210.099 46.6688C210.863 45.3258 211.911 44.2722 213.243 43.5079C214.586 42.7436 216.131 42.3615 217.878 42.3615C219.625 42.3615 221.164 42.7436 222.496 43.5079C223.839 44.2722 224.887 45.3258 225.641 46.6688C226.405 48.0117 226.787 49.5512 226.787 51.2872C226.787 53.0232 226.405 54.5736 225.641 55.9384C224.887 57.2923 223.839 58.3623 222.496 59.1484C221.164 59.9236 219.625 60.3112 217.878 60.3112ZM217.878 57.7563C219.079 57.7563 220.138 57.4888 221.055 56.9538C221.972 56.4188 222.687 55.6654 223.2 54.6937C223.725 53.722 223.987 52.5865 223.987 51.2872C223.987 49.9879 223.725 48.8633 223.2 47.9134C222.687 46.9526 221.972 46.2156 221.055 45.7025C220.138 45.1784 219.079 44.9164 217.878 44.9164C216.688 44.9164 215.629 45.1784 214.701 45.7025C213.783 46.2156 213.063 46.9526 212.539 47.9134C212.026 48.8633 211.769 49.9879 211.769 51.2872C211.769 52.5865 212.026 53.722 212.539 54.6937C213.063 55.6654 213.783 56.4188 214.701 56.9538C215.629 57.4888 216.688 57.7563 217.878 57.7563ZM231.135 60V42.6071H233.92V44.8836C234.367 44.1521 234.99 43.5461 235.787 43.0657C236.595 42.5853 237.594 42.3451 238.784 42.3451C239.482 42.3451 240.05 42.4052 240.487 42.5253C240.935 42.6344 241.213 42.7218 241.322 42.7873L240.602 45.5223C240.492 45.4459 240.269 45.3476 239.93 45.2275C239.602 45.1074 239.133 45.0474 238.522 45.0474C237.31 45.0474 236.371 45.3313 235.705 45.899C235.039 46.4558 234.575 47.1546 234.313 47.9953C234.051 48.8251 233.92 49.6549 233.92 50.4847V60H231.135Z" fill="#4285F4"/>
</svg>
