<svg width="144" height="61" viewBox="0 0 144 61" fill="none" xmlns="http://www.w3.org/2000/svg">
<path d="M1.1559 26V8.60715H3.94006V10.8345C4.51873 10.0811 5.23388 9.48061 6.08551 9.03296C6.93714 8.57439 7.89795 8.34511 8.96794 8.34511C10.3218 8.34511 11.4191 8.62898 12.2598 9.19674C13.1005 9.76449 13.7119 10.5342 14.0941 11.506C14.6509 10.5779 15.3934 9.81908 16.3214 9.22949C17.2495 8.6399 18.3358 8.34511 19.5805 8.34511C21.4585 8.34511 22.8779 8.88556 23.8387 9.96648C24.8104 11.0474 25.2963 12.4995 25.2963 14.3229V26H22.5121V15.24C22.5121 14.8142 22.4848 14.3556 22.4302 13.8643C22.3756 13.373 22.2391 12.9144 22.0208 12.4886C21.8024 12.0519 21.453 11.697 20.9726 11.4241C20.5031 11.1402 19.8426 10.9983 18.9909 10.9983C17.8664 10.9983 16.9874 11.2712 16.3542 11.8171C15.7209 12.363 15.2733 13.0291 15.0112 13.8152C14.7492 14.6013 14.6182 15.3601 14.6182 16.0916V26H11.8504V15.3055C11.8504 14.8797 11.8176 14.4211 11.7521 13.9298C11.6975 13.4276 11.561 12.9581 11.3427 12.5214C11.1243 12.0737 10.7804 11.7079 10.3109 11.4241C9.85232 11.1402 9.2136 10.9983 8.39473 10.9983C7.29198 10.9983 6.41306 11.2767 5.75796 11.8335C5.10286 12.3794 4.63337 13.0618 4.3495 13.8807C4.07654 14.6996 3.94006 15.5184 3.94006 16.3373V26H1.1559ZM36.2123 26.3275C34.2252 26.3275 32.6311 25.869 31.4301 24.9518C30.2291 24.0238 29.6286 22.7409 29.6286 21.1031C29.6286 19.3999 30.2782 18.117 31.5775 17.2544C32.8768 16.381 34.5964 15.8405 36.7364 15.6331C38.8764 15.4147 40.3995 15.2018 41.3057 14.9944C42.2119 14.776 42.6651 14.4266 42.6651 13.9462V13.8971C42.6651 12.8926 42.2556 12.1447 41.4367 11.6534C40.6179 11.1511 39.4332 10.9 37.8828 10.9C36.2669 10.9 35.0113 11.1839 34.116 11.7516C33.2207 12.3085 32.7731 13.2147 32.7731 14.4703H30.0217C30.0217 13.171 30.3547 12.0682 31.0207 11.162C31.6867 10.2449 32.6093 9.54612 33.7885 9.06572C34.9786 8.58531 36.3488 8.34511 37.8992 8.34511C39.3186 8.34511 40.596 8.56347 41.7315 9.00021C42.878 9.42602 43.7842 10.0647 44.4502 10.9164C45.1271 11.7571 45.4656 12.7998 45.4656 14.0445V22.7245C45.4656 23.1067 45.482 23.4779 45.5147 23.8382C45.5475 24.1985 45.6021 24.5151 45.6785 24.7881C45.7768 25.1156 45.886 25.3831 46.0061 25.5906C46.1262 25.7871 46.2244 25.9236 46.3008 26H43.5003C43.3365 25.8362 43.1509 25.4705 42.9435 24.9027C42.8561 24.6625 42.7906 24.3404 42.7469 23.9364C42.1464 24.657 41.2893 25.2357 40.1757 25.6725C39.062 26.1092 37.7409 26.3275 36.2123 26.3275ZM36.6545 23.8218C37.7791 23.8218 38.7945 23.6526 39.7007 23.3141C40.607 22.9647 41.3276 22.4516 41.8626 21.7746C42.3976 21.0977 42.6651 20.257 42.6651 19.2525V17.0579C41.9663 17.2763 41.1583 17.4564 40.2412 17.5984C39.3241 17.7294 38.3796 17.8386 37.4079 17.9259C35.7592 18.0788 34.5145 18.3681 33.6738 18.7939C32.844 19.2197 32.4291 19.9349 32.4291 20.9394C32.4291 22.861 33.8376 23.8218 36.6545 23.8218ZM56.7456 26.3275C55.3589 26.3275 54.1088 26.131 52.9951 25.738C51.8924 25.3449 51.0189 24.7717 50.3747 24.0183C49.7415 23.254 49.4248 22.326 49.4248 21.2342V20.7265H52.2254V21.0868C52.2254 21.9711 52.6348 22.6481 53.4537 23.1176C54.2726 23.5761 55.3917 23.8054 56.8111 23.8054C58.1104 23.8054 59.1967 23.6089 60.0702 23.2158C60.9436 22.8228 61.3804 22.2113 61.3804 21.3816C61.3804 20.4753 60.9546 19.8312 60.1029 19.449C59.2622 19.056 58.0012 18.7175 56.3197 18.4336C55.1406 18.2262 54.0487 17.9314 53.0443 17.5492C52.0398 17.1671 51.2264 16.6376 50.604 15.9606C49.9926 15.2837 49.6869 14.3993 49.6869 13.3075C49.6869 12.2484 49.9981 11.3531 50.6204 10.6216C51.2537 9.87913 52.1053 9.31684 53.1753 8.9347C54.2453 8.54164 55.4354 8.34511 56.7456 8.34511C58.0121 8.34511 59.1803 8.5471 60.2503 8.95108C61.3203 9.35505 62.1774 9.94464 62.8216 10.7198C63.4767 11.4841 63.8042 12.4286 63.8042 13.5531V13.8807H61.0201V13.635C61.0201 13.0018 60.8181 12.4831 60.4141 12.0792C60.0101 11.6643 59.4861 11.3586 58.8419 11.162C58.1977 10.9546 57.5098 10.8509 56.7783 10.8509C56.0905 10.8509 55.4135 10.9273 54.7475 11.0801C54.0815 11.2221 53.5301 11.4623 53.0934 11.8008C52.6567 12.1392 52.4383 12.6032 52.4383 13.1928C52.4383 14.0772 52.8914 14.7105 53.7976 15.0926C54.7038 15.4748 55.9158 15.8078 57.4334 16.0916C58.6453 16.31 59.759 16.6048 60.7744 16.976C61.7898 17.3472 62.6032 17.8713 63.2147 18.5483C63.8261 19.2143 64.1318 20.1096 64.1318 21.2342C64.1318 22.3587 63.7933 23.3032 63.1164 24.0675C62.4504 24.8208 61.5551 25.3886 60.4305 25.7707C59.3168 26.1419 58.0885 26.3275 56.7456 26.3275ZM68.457 26V0.402046H71.1101V15.0435L78.6274 8.60715H82.2304L74.9588 15.0107L82.2959 26H79.2988L73.1737 16.583L71.1101 18.3681V26H68.457ZM8.32922 60.3275C6.89892 60.3275 5.58873 59.9836 4.39863 59.2958C3.20854 58.597 2.25864 57.5761 1.54895 56.2332C0.839266 54.8793 0.484421 53.2307 0.484421 51.2872C0.484421 49.3765 0.844725 47.7551 1.56533 46.4231C2.28594 45.0911 3.24129 44.0811 4.43139 43.3933C5.62148 42.6945 6.92076 42.3451 8.32922 42.3451C9.42105 42.3451 10.4637 42.5635 11.4573 43.0002C12.4509 43.426 13.308 44.0211 14.0286 44.7853V34.402H16.8291V60H14.0286V57.8218C13.3298 58.597 12.4891 59.2084 11.5064 59.6561C10.5238 60.1037 9.46472 60.3275 8.32922 60.3275ZM8.72228 57.6908C9.69401 57.6908 10.5784 57.456 11.3754 56.9865C12.1834 56.5171 12.8276 55.8893 13.308 55.1031C13.7884 54.3061 14.0286 53.4163 14.0286 52.4336V49.977C14.0286 49.0271 13.7775 48.17 13.2752 47.4057C12.7839 46.6415 12.1342 46.0355 11.3263 45.5878C10.5183 45.1293 9.65033 44.9 8.72228 44.9C7.17188 44.9 5.88898 45.4241 4.87358 46.4722C3.85818 47.5095 3.35047 49.1145 3.35047 51.2872C3.35047 53.449 3.85818 55.0595 4.87358 56.1185C5.8999 57.1667 7.1828 57.6908 8.72228 57.6908ZM38.2976 54.5299C38.2212 55.458 37.8555 56.3697 37.2004 57.265C36.5562 58.1493 35.6281 58.8863 34.4162 59.4759C33.2043 60.0546 31.7139 60.3439 29.9451 60.3439C28.1982 60.3439 26.6587 59.9618 25.3267 59.1975C23.9947 58.4332 22.9465 57.3741 22.1822 56.0203C21.4289 54.6664 21.0522 53.1106 21.0522 51.3527C21.0522 49.573 21.4343 48.0117 22.1986 46.6688C22.9629 45.3149 24.0165 44.2558 25.3595 43.4915C26.7024 42.7272 28.2364 42.3451 29.9615 42.3451C31.7194 42.3451 33.2425 42.7272 34.5308 43.4915C35.8192 44.2558 36.8128 45.304 37.5115 46.636C38.2103 47.9571 38.5597 49.4638 38.5597 51.1562C38.5597 51.3309 38.5542 51.5602 38.5433 51.844C38.5324 52.1279 38.516 52.319 38.4942 52.4172H23.82C24.0274 54.0987 24.6771 55.4143 25.7689 56.3642C26.8607 57.3141 28.2801 57.789 30.027 57.789C31.2608 57.789 32.2707 57.6253 33.0569 57.2977C33.843 56.9593 34.4326 56.5389 34.8256 56.0367C35.2296 55.5344 35.4589 55.0322 35.5135 54.5299H38.2976ZM29.9943 44.8672C28.3675 44.8672 27.0027 45.3203 25.8999 46.2266C24.7972 47.1219 24.1202 48.3556 23.8691 49.9279H35.5626C35.4644 48.5303 34.9457 47.3402 34.0068 46.3576C33.0678 45.364 31.7303 44.8672 29.9943 44.8672ZM49.4259 60.262C48.7162 60.262 48.0283 60.1529 47.3623 59.9345C46.7072 59.7052 46.1722 59.2794 45.7573 58.657C45.3424 58.0238 45.135 57.1012 45.135 55.8893V45.0638H40.8932V42.6071H43.6119C44.1141 42.6071 44.469 42.5799 44.6764 42.5253C44.8839 42.4598 45.0094 42.3014 45.0531 42.0503C45.1077 41.7883 45.135 41.3679 45.135 40.7893V36.8423H47.9355V42.6071H53.3728V45.0638H47.9355V54.8411C47.9355 55.7692 48.0447 56.4952 48.2631 57.0193C48.4924 57.5434 49.0001 57.8054 49.7862 57.8054C50.1028 57.8054 50.4031 57.7781 50.6869 57.7235C50.9708 57.6689 51.1837 57.6144 51.3257 57.5598V59.9836C51.14 60.0491 50.878 60.1092 50.5395 60.1638C50.212 60.2293 49.8408 60.262 49.4259 60.262ZM72.9398 54.5299C72.8634 55.458 72.4976 56.3697 71.8425 57.265C71.1983 58.1493 70.2703 58.8863 69.0583 59.4759C67.8464 60.0546 66.3561 60.3439 64.5873 60.3439C62.8404 60.3439 61.3009 59.9618 59.9689 59.1975C58.6368 58.4332 57.5887 57.3741 56.8244 56.0203C56.071 54.6664 55.6943 53.1106 55.6943 51.3527C55.6943 49.573 56.0765 48.0117 56.8408 46.6688C57.605 45.3149 58.6587 44.2558 60.0016 43.4915C61.3446 42.7272 62.8786 42.3451 64.6037 42.3451C66.3615 42.3451 67.8846 42.7272 69.173 43.4915C70.4613 44.2558 71.4549 45.304 72.1537 46.636C72.8524 47.9571 73.2018 49.4638 73.2018 51.1562C73.2018 51.3309 73.1964 51.5602 73.1855 51.844C73.1745 52.1279 73.1582 52.319 73.1363 52.4172H58.4621C58.6696 54.0987 59.3192 55.4143 60.411 56.3642C61.5029 57.3141 62.9223 57.789 64.6692 57.789C65.903 57.789 66.9129 57.6253 67.699 57.2977C68.4851 56.9593 69.0747 56.5389 69.4678 56.0367C69.8718 55.5344 70.101 55.0322 70.1556 54.5299H72.9398ZM64.6364 44.8672C63.0096 44.8672 61.6448 45.3203 60.5421 46.2266C59.4393 47.1219 58.7624 48.3556 58.5113 49.9279H70.2048C70.1065 48.5303 69.5879 47.3402 68.6489 46.3576C67.7099 45.364 66.3724 44.8672 64.6364 44.8672ZM85.7956 60.3275C84.136 60.3275 82.6293 59.9672 81.2754 59.2466C79.9215 58.5151 78.8461 57.4724 78.049 56.1185C77.2629 54.7647 76.8699 53.1542 76.8699 51.2872C76.8699 49.4202 77.2629 47.8206 78.049 46.4886C78.8461 45.1457 79.9215 44.1193 81.2754 43.4096C82.6293 42.7 84.136 42.3451 85.7956 42.3451C87.477 42.3451 88.9182 42.6781 90.1192 43.3441C91.3202 44.0101 92.2374 44.8454 92.8706 45.8499C93.5148 46.8544 93.8369 47.8698 93.8369 48.8961V49.0107H91.0691C91.0691 48.9561 91.0637 48.8961 91.0527 48.8306C91.0418 48.7542 91.0309 48.6777 91.02 48.6013C90.878 47.5095 90.3267 46.6196 89.3659 45.9318C88.416 45.2439 87.2204 44.9 85.7792 44.9C84.6983 44.9 83.6938 45.1347 82.7657 45.6042C81.8486 46.0628 81.1062 46.767 80.5384 47.7169C79.9816 48.6559 79.7032 49.846 79.7032 51.2872C79.7032 52.7175 79.9816 53.913 80.5384 54.8739C81.0952 55.8347 81.8322 56.5607 82.7494 57.0521C83.6774 57.5325 84.6874 57.7727 85.7792 57.7727C87.548 57.7727 88.8527 57.3687 89.6934 56.5607C90.545 55.7528 91.0036 54.8138 91.0691 53.7438H93.8369C93.8369 54.792 93.5257 55.8238 92.9034 56.8392C92.292 57.8436 91.3912 58.6789 90.2011 59.3449C89.011 60 87.5425 60.3275 85.7956 60.3275ZM104.7 60.262C103.99 60.262 103.302 60.1529 102.636 59.9345C101.981 59.7052 101.446 59.2794 101.031 58.657C100.616 58.0238 100.409 57.1012 100.409 55.8893V45.0638H96.1671V42.6071H98.8858C99.388 42.6071 99.7429 42.5799 99.9503 42.5253C100.158 42.4598 100.283 42.3014 100.327 42.0503C100.382 41.7883 100.409 41.3679 100.409 40.7893V36.8423H103.209V42.6071H108.647V45.0638H103.209V54.8411C103.209 55.7692 103.319 56.4952 103.537 57.0193C103.766 57.5434 104.274 57.8054 105.06 57.8054C105.377 57.8054 105.677 57.7781 105.961 57.7235C106.245 57.6689 106.458 57.6144 106.6 57.5598V59.9836C106.414 60.0491 106.152 60.1092 105.813 60.1638C105.486 60.2293 105.115 60.262 104.7 60.262ZM119.878 60.3112C118.131 60.3112 116.586 59.9236 115.243 59.1484C113.911 58.3623 112.863 57.2923 112.098 55.9384C111.345 54.5736 110.968 53.0232 110.968 51.2872C110.968 49.5512 111.345 48.0117 112.098 46.6688C112.863 45.3258 113.911 44.2722 115.243 43.5079C116.586 42.7436 118.131 42.3615 119.878 42.3615C121.624 42.3615 123.164 42.7436 124.496 43.5079C125.839 44.2722 126.887 45.3258 127.64 46.6688C128.405 48.0117 128.787 49.5512 128.787 51.2872C128.787 53.0232 128.405 54.5736 127.64 55.9384C126.887 57.2923 125.839 58.3623 124.496 59.1484C123.164 59.9236 121.624 60.3112 119.878 60.3112ZM119.878 57.7563C121.079 57.7563 122.138 57.4888 123.055 56.9538C123.972 56.4188 124.687 55.6654 125.2 54.6937C125.724 53.722 125.986 52.5865 125.986 51.2872C125.986 49.9879 125.724 48.8633 125.2 47.9134C124.687 46.9526 123.972 46.2156 123.055 45.7025C122.138 45.1784 121.079 44.9164 119.878 44.9164C118.687 44.9164 117.628 45.1784 116.7 45.7025C115.783 46.2156 115.063 46.9526 114.539 47.9134C114.025 48.8633 113.769 49.9879 113.769 51.2872C113.769 52.5865 114.025 53.722 114.539 54.6937C115.063 55.6654 115.783 56.4188 116.7 56.9538C117.628 57.4888 118.687 57.7563 119.878 57.7563ZM133.135 60V42.6071H135.919V44.8836C136.367 44.1521 136.989 43.5461 137.786 43.0657C138.594 42.5853 139.593 42.3451 140.783 42.3451C141.482 42.3451 142.05 42.4052 142.487 42.5253C142.934 42.6344 143.213 42.7218 143.322 42.7873L142.601 45.5223C142.492 45.4459 142.268 45.3476 141.93 45.2275C141.602 45.1074 141.133 45.0474 140.521 45.0474C139.309 45.0474 138.37 45.3313 137.704 45.899C137.038 46.4558 136.574 47.1546 136.312 47.9953C136.05 48.8251 135.919 49.6549 135.919 50.4847V60H133.135Z" fill="#8259A3"/>
</svg>
