<svg width="935" height="588" viewBox="0 0 935 588" fill="none" xmlns="http://www.w3.org/2000/svg">
<path d="M912.477 117.192C888.945 70.3335 837.223 35.0971 786.903 45.9359C756.777 52.4062 726.816 74.125 697.926 63.2038C677.114 55.3323 665.369 33.0777 647.854 19.1068C620.901 -2.4059 582.656 -2.15863 549.851 7.48501C517.005 17.1286 486.962 34.8499 454.528 45.8123C399.262 64.4814 337.568 62.462 283.538 40.2074C259.842 30.4402 237.628 16.9226 213.519 8.35046C189.369 -0.262873 162.004 -3.60106 138.719 7.15531C115.434 17.9117 98.7022 46.0595 106.78 70.9105C108.387 75.8559 110.901 80.7602 110.571 85.9529C110.035 94.3189 102.164 100.418 94.21 102.273C86.2561 104.127 77.9312 102.932 69.7712 103.138C33.1337 104.086 0.370029 138.375 0.205181 175.96C0.0403323 207.117 18.7918 234.523 34.8234 260.981C50.8549 287.48 65.2791 319.255 55.7179 348.804C50.0718 366.36 36.7603 380.084 28.0646 396.239C5.52154 438.193 17.5555 493.747 49.0828 529.148C80.5688 564.549 127.757 581.858 174.326 585.98C220.896 590.101 267.589 582.353 313.747 574.729C359.905 567.063 406.639 559.48 453.168 563.849L450.654 562.447C541.568 585.485 636.685 591.007 729.577 578.644C749.029 576.047 771.325 570.484 779.568 552.268C786.491 536.855 780.268 518.804 781.711 501.907C783.771 477.55 801.616 457.604 821.068 443.427C840.52 429.25 862.569 418.7 880.084 402.132C914.372 369.657 925.994 319.42 931.104 271.861C936.751 219.439 936.009 164.05 912.477 117.192Z" fill="url(#paint0_linear)"/>
<path d="M246.859 573.657C278.098 557.378 288.813 501.453 271.051 483.279C259.058 470.997 241.831 483.897 225.223 471.204C203.999 454.966 219.618 424.345 202.927 384.658C188.75 350.823 154.709 318.842 134.845 325.436C114.033 332.319 103.07 383.257 120.833 413.919C132.413 433.865 150.093 434.854 153.926 453.4C158.377 474.913 136.864 484.721 136.741 505.574C136.534 543.036 205.524 595.211 246.859 573.657Z" fill="#BDD0FB"/>
<path d="M230.003 587.957C230.209 587.957 230.374 587.916 230.539 587.834C231.157 587.545 231.446 586.762 231.116 586.144C189.698 500.753 177.54 401.72 177.416 400.731C177.334 400.03 176.716 399.536 176.015 399.618C175.315 399.701 174.82 400.319 174.903 401.019C175.026 402.008 187.225 501.494 228.849 587.257C229.055 587.71 229.509 587.957 230.003 587.957Z" fill="#91B3FA"/>
<path d="M144.983 426.365C145.107 426.365 145.23 426.324 145.354 426.241C145.601 426.035 145.684 425.664 145.477 425.376C132.413 408.602 117.907 383.381 123.14 358.53C126.231 343.734 135.01 336.028 135.092 335.945C135.339 335.739 135.38 335.327 135.174 335.08C134.968 334.833 134.556 334.791 134.309 335.039C133.938 335.368 125.16 343.116 121.987 358.282C119.06 372.253 120.585 395.332 144.571 426.117C144.612 426.282 144.818 426.365 144.983 426.365Z" fill="#F0F0F0"/>
<path d="M249.703 566.197C249.909 566.197 250.074 566.115 250.198 565.95C270.309 536.607 277.15 513.94 270.556 498.568C264.704 484.885 249.909 482.372 249.785 482.33C249.456 482.289 249.126 482.495 249.085 482.825C249.044 483.155 249.25 483.484 249.579 483.525C249.703 483.567 263.839 485.998 269.444 499.062C275.831 514.022 269.031 536.277 249.167 565.249C248.961 565.538 249.044 565.908 249.332 566.115C249.456 566.156 249.579 566.197 249.703 566.197Z" fill="#F0F0F0"/>
<path d="M113.25 314.762H77.8899C73.5214 314.762 69.4414 317.111 67.2571 320.903L49.5771 351.523C47.3929 355.315 47.3929 360.013 49.5771 363.804L67.2571 394.425C69.4414 398.217 73.5214 400.566 77.8899 400.566H113.25C117.618 400.566 121.698 398.217 123.883 394.425L141.563 363.804C143.747 360.013 143.747 355.315 141.563 351.523L123.883 320.903C121.698 317.07 117.66 314.762 113.25 314.762Z" fill="#7D97F4"/>
<path d="M77.8903 394.672C75.6237 394.672 73.4806 393.436 72.3267 391.458L54.6467 360.837C53.4928 358.859 53.4928 356.427 54.6467 354.449L72.3267 323.829C73.4806 321.85 75.5825 320.614 77.8903 320.614H113.25C115.517 320.614 117.66 321.85 118.814 323.829L136.494 354.449C137.648 356.427 137.648 358.859 136.494 360.837L118.814 391.458C117.66 393.436 115.558 394.672 113.25 394.672H77.8903Z" fill="#91B3FA"/>
<path d="M191.8 363.022H156.44C152.071 363.022 147.991 365.371 145.807 369.163L128.127 399.783C125.943 403.575 125.943 408.273 128.127 412.064L145.807 442.685C147.991 446.477 152.071 448.826 156.44 448.826H191.8C196.168 448.826 200.248 446.477 202.432 442.685L220.112 412.064C222.297 408.273 222.297 403.575 220.112 399.783L202.432 369.163C200.248 365.33 196.168 363.022 191.8 363.022Z" fill="#7D97F4"/>
<path d="M156.44 442.932C154.173 442.932 152.03 441.696 150.876 439.718L133.196 409.097C132.042 407.119 132.042 404.687 133.196 402.709L150.876 372.089C152.03 370.111 154.132 368.874 156.44 368.874H191.8C194.066 368.874 196.209 370.111 197.363 372.089L215.043 402.709C216.197 404.687 216.197 407.119 215.043 409.097L197.363 439.718C196.209 441.696 194.108 442.932 191.8 442.932H156.44Z" fill="#91B3FA"/>
<path d="M198.353 268.11H162.993C158.624 268.11 154.544 270.459 152.36 274.251L134.68 304.871C132.496 308.663 132.496 313.361 134.68 317.153L152.36 347.773C154.544 351.565 158.624 353.914 162.993 353.914H198.353C202.721 353.914 206.801 351.565 208.986 347.773L226.666 317.153C228.85 313.361 228.85 308.663 226.666 304.871L208.986 274.251C206.76 270.459 202.721 268.11 198.353 268.11Z" fill="#7D97F4"/>
<path d="M162.993 348.062C160.726 348.062 158.583 346.826 157.429 344.847L139.749 314.227C138.595 312.249 138.595 309.817 139.749 307.839L157.429 277.218C158.583 275.24 160.685 274.004 162.993 274.004H198.353C200.62 274.004 202.763 275.24 203.917 277.218L221.597 307.839C222.75 309.817 222.75 312.249 221.597 314.227L203.917 344.847C202.763 346.826 200.661 348.062 198.353 348.062H162.993Z" fill="#91B3FA"/>
<path d="M900.278 277.136C891.788 322.469 830.382 584.001 547.543 564.796C547.543 564.796 538.765 381.196 894.508 272.602C897.599 271.654 900.814 274.168 900.278 277.136Z" fill="#91B3FA"/>
<path d="M868.503 321.645C864.135 328.486 859.478 335.039 854.739 341.592C852.39 344.847 849.917 348.062 847.485 351.276C845.013 354.45 842.581 357.664 840.026 360.838C829.97 373.449 819.461 385.73 808.54 397.599C786.615 421.296 763.042 443.509 737.614 463.415C731.308 468.484 724.756 473.182 718.244 478.004C711.568 482.578 705.015 487.276 698.133 491.562C691.415 496.055 684.368 500.052 677.444 504.215C673.9 506.193 670.356 508.089 666.811 510.025C665.039 510.973 663.267 512.004 661.454 512.91L656.014 515.589L650.574 518.268C648.76 519.175 646.947 520.081 645.093 520.864L634.006 525.81C633.1 526.222 632.152 526.634 631.245 527.046L628.443 528.159L622.797 530.384C619.046 531.868 615.296 533.434 611.422 534.629L599.924 538.544C596.05 539.739 592.176 540.811 588.261 541.965L582.409 543.655C580.431 544.149 578.453 544.602 576.516 545.056L564.688 547.858C563.822 548.064 562.916 547.529 562.71 546.622C562.503 545.756 563.039 544.85 563.946 544.644H564.028L575.733 541.924C577.669 541.47 579.648 541.058 581.585 540.564L587.354 538.915C591.187 537.802 595.102 536.772 598.935 535.577L610.351 531.744C614.183 530.549 617.893 529.024 621.643 527.582L627.248 525.398L630.05 524.326C630.998 523.955 631.905 523.543 632.811 523.131L643.856 518.268C645.711 517.485 647.483 516.578 649.296 515.713L654.695 513.075L660.094 510.438C661.907 509.531 663.638 508.542 665.41 507.594C668.954 505.698 672.499 503.802 676.002 501.865C682.925 497.785 689.931 493.829 696.649 489.419C703.49 485.216 710.043 480.559 716.719 476.025C723.189 471.286 729.783 466.629 736.048 461.601C761.476 441.902 785.09 419.895 807.056 396.362C818.019 384.576 828.569 372.418 838.666 359.849C841.221 356.716 843.652 353.543 846.125 350.37C848.557 347.155 851.029 343.982 853.379 340.726C858.159 334.256 862.816 327.662 867.185 320.944C867.391 320.615 867.803 320.532 868.133 320.738C868.627 320.903 868.751 321.315 868.503 321.645Z" fill="#BDD0FB"/>
<path d="M772.149 61.1019C793.209 115.09 900.814 433.659 573.754 574.852C573.754 574.852 440.557 380.908 762.671 59.4946C765.514 56.6922 770.789 57.5989 772.149 61.1019Z" fill="#BDD0FB"/>
<path d="M758.179 145.504C755.5 163.597 752.162 181.524 748.576 199.41C744.95 217.296 740.952 235.1 736.584 252.862C727.847 288.304 717.667 323.417 705.633 357.912C693.558 392.365 679.628 426.283 662.731 458.717C654.242 474.913 645.051 490.78 634.79 505.946C624.61 521.153 613.277 535.618 600.707 549.053C600.089 549.713 599.059 549.754 598.399 549.136C597.74 548.518 597.699 547.487 598.317 546.828C610.763 533.64 622.055 519.34 632.234 504.297C642.496 489.296 651.687 473.553 660.176 457.48C677.156 425.252 691.168 391.541 703.367 357.211C715.524 322.84 725.827 287.851 734.729 252.491C739.18 234.811 743.219 217.049 746.928 199.163C750.596 181.318 754.016 163.39 756.778 145.381C756.819 145.01 757.19 144.763 757.561 144.804C758.014 144.804 758.261 145.133 758.179 145.504Z" fill="#BDD0FB"/>
<path d="M669.366 408.355C684.903 393.684 693.022 371.553 690.631 350.328C688.241 329.104 675.424 309.322 657.043 298.442C646.946 292.467 634.624 288.387 629.019 278.084C624.527 269.759 625.763 259.662 627 250.265C632.934 204.479 635.036 156.508 617.892 113.647C592.423 49.9745 522.403 7.2375 454.156 13.543C385.909 7.27871 315.889 49.9745 290.42 113.647C273.276 156.508 275.378 204.479 281.312 250.265C282.549 259.662 283.785 269.759 279.293 278.084C273.729 288.387 261.366 292.467 251.269 298.442C232.888 309.322 220.071 329.104 217.681 350.328C215.291 371.553 223.409 393.684 238.946 408.355C244.016 413.136 250.074 417.545 252.299 424.139C255.39 433.371 249.991 442.973 247.106 452.246C237.38 483.444 257.945 517.608 286.052 534.258C312.386 549.878 343.708 553.751 374.328 556.554C387.681 560.593 401.24 564.467 415.169 564.219C429.923 563.972 445.337 558.326 453.826 546.251C453.991 546.045 454.115 545.839 454.239 545.633C454.362 545.839 454.527 546.045 454.651 546.251C463.14 558.326 478.554 563.931 493.308 564.219C507.196 564.467 520.796 560.593 534.149 556.554C564.769 553.751 596.091 549.878 622.425 534.258C650.532 517.608 671.097 483.402 661.371 452.246C658.486 442.973 653.046 433.371 656.178 424.139C658.28 417.504 664.297 413.136 669.366 408.355Z" fill="url(#paint1_linear)"/>
<path d="M627.865 508.171C587.807 509.325 535.179 528.777 511.194 496.714C487.167 464.692 496.316 366.278 496.316 366.278C496.316 366.278 466.808 363.187 451.519 363.805C436.229 363.187 406.721 366.278 406.721 366.278C406.721 366.278 415.87 464.651 391.843 496.714C367.817 528.736 315.189 509.284 275.172 508.171C243.48 507.264 232.394 566.61 236.968 581.529C238.163 585.361 241.708 587.958 245.705 587.958H663.885C667.882 587.958 671.426 585.361 672.622 581.529C677.196 566.61 659.557 507.264 627.865 508.171Z" fill="url(#paint2_linear)"/>
<path d="M627.865 508.171C607.136 508.748 583.027 514.271 561.225 514.971C541.32 531.374 503.57 555.483 455.64 552.763C402.847 549.754 365.015 526.964 348.612 515.013C325.162 515.466 298.086 508.79 275.131 508.13C243.439 507.224 232.353 566.569 236.927 581.488C238.122 585.321 241.667 587.917 245.664 587.917H663.844C667.841 587.917 671.385 585.321 672.581 581.488C677.196 566.61 659.558 507.265 627.865 508.171Z" fill="url(#paint3_linear)"/>
<path d="M354.258 138.787C351.868 142.702 350.59 147.194 350.508 151.769C349.848 182.43 347.788 308.581 358.544 333.39C371.897 364.176 406.144 397.764 449.293 403.904C492.442 410.086 545.235 350.823 551.376 322.345C554.631 307.303 554.26 185.398 554.096 152.922C554.054 147.4 552.323 142.042 549.068 137.55C536.91 120.818 503.157 82.12 453.002 86.2C418.879 89.0437 382.942 91.2691 354.258 138.787Z" fill="url(#paint4_linear)"/>
<path d="M547.378 244.455C547.378 244.455 547.378 188.983 578.205 219.81C609.032 250.636 547.378 293.786 547.378 293.786V244.455Z" fill="url(#paint5_linear)"/>
<path d="M356.236 244.455C356.236 244.455 356.236 188.983 325.41 219.81C294.583 250.636 356.236 293.786 356.236 293.786V244.455Z" fill="url(#paint6_linear)"/>
<path d="M343.914 195.989C343.997 197.885 370.29 177.732 415.706 169.325C471.095 159.063 490.423 128.649 502.911 128.649C509.051 128.649 518.283 132.481 517.252 159.187C516.222 185.892 544.947 217.378 567.531 186.84C590.115 156.302 548.038 77.1334 451.643 79.0292C355.206 80.9662 340.823 117.769 343.914 195.989Z" fill="url(#paint7_linear)"/>
<path d="M363.201 239.756C368.271 237.572 372.103 232.503 377.337 230.319C383.56 227.723 390.113 227.764 396.336 229.783C407.134 233.286 418.384 241.982 429.965 236.46C430.377 236.253 430.295 235.429 429.8 235.47C414.881 236.171 403.795 223.478 389.33 222.447C383.849 222.076 377.378 221.953 372.309 224.508C367.817 226.775 357.72 233.946 357.72 233.946C357.72 233.946 362.048 240.251 363.201 239.756Z" fill="url(#paint8_linear)"/>
<path d="M540.908 239.756C535.839 237.572 532.007 232.503 526.773 230.319C520.55 227.722 513.997 227.764 507.774 229.783C496.976 233.286 485.725 241.982 474.145 236.459C473.733 236.253 473.815 235.429 474.31 235.47C489.228 236.171 500.314 223.478 514.78 222.447C520.261 222.076 526.731 221.953 531.8 224.508C536.293 226.775 546.39 233.945 546.39 233.945C546.39 233.945 542.062 240.251 540.908 239.756Z" fill="url(#paint9_linear)"/>
<path d="M473.155 197.02C473.155 199.74 475.793 201.677 478.389 200.811C490.835 196.649 523.104 188.283 547.502 202.707C547.502 202.707 533.861 171.344 475.71 193.31C474.144 193.887 473.155 195.371 473.155 197.02Z" fill="url(#paint10_linear)"/>
<path d="M431.284 197.02C431.284 199.74 428.646 201.677 426.05 200.811C413.604 196.649 381.335 188.283 356.937 202.707C356.937 202.707 370.578 171.344 428.729 193.31C430.295 193.887 431.284 195.371 431.284 197.02Z" fill="url(#paint11_linear)"/>
<path d="M309.584 353.667C308.307 353.667 307.029 353.543 305.751 353.255C305.298 353.172 305.01 352.719 305.133 352.265C305.216 351.812 305.669 351.524 306.122 351.647C314.488 353.419 326.028 347.979 330.149 336.11C333.199 327.332 331.962 316.411 326.728 305.284C323.72 298.896 319.681 292.838 315.807 287.027C313.788 284.018 311.727 280.886 309.79 277.713C300.435 262.423 295.242 247.257 294.336 232.668C293.264 215.482 298.498 199.162 308.677 187.788C320.299 174.847 337.361 168.83 352.568 164.668C363.613 161.659 374.947 159.187 385.95 156.796C399.633 153.829 413.727 150.779 427.327 146.617C456.505 137.674 477.688 125.022 492.03 107.919C492.319 107.589 492.854 107.548 493.184 107.836C493.514 108.125 493.555 108.661 493.267 108.99C478.636 126.341 457.206 139.158 427.698 148.224C414.057 152.387 399.88 155.478 386.197 158.445C375.235 160.835 363.902 163.267 352.898 166.275C337.938 170.355 321.124 176.248 309.79 188.901C299.899 199.904 294.83 215.853 295.861 232.585C296.767 246.886 301.877 261.805 311.068 276.888C312.964 280.021 315.065 283.111 317.044 286.12C320.959 292.013 324.997 298.072 328.088 304.583C333.528 316.081 334.765 327.497 331.591 336.646C328.583 345.465 319.64 353.667 309.584 353.667Z" fill="#7D97F4"/>
<path d="M301.877 170.438H301.836C301.63 170.396 301.465 170.19 301.465 169.984C302.454 161.206 307.977 152.758 316.59 146.782C324.956 140.971 334.971 138.21 342.801 136.438C357.267 133.182 372.309 131.575 386.816 130.091C390.525 129.72 394.193 129.308 397.902 128.896C415.705 126.918 434.58 124.115 452.013 117.356C465.325 112.164 483.664 102.231 495.245 84.263C495.368 84.0569 495.616 84.0157 495.822 84.1394C496.028 84.263 496.069 84.5103 495.945 84.7163C484.241 102.85 465.778 112.905 452.343 118.098C434.828 124.898 415.87 127.701 398.025 129.679C394.357 130.091 390.648 130.462 386.939 130.874C372.433 132.399 357.431 133.965 343.007 137.221C335.259 138.951 325.327 141.713 317.085 147.441C308.677 153.293 303.279 161.536 302.331 170.067C302.248 170.273 302.042 170.438 301.877 170.438Z" fill="#7D97F4"/>
<path d="M600.707 490.161C600.377 490.161 600.047 489.955 599.924 489.584C599.8 489.172 600.006 488.678 600.459 488.554C606.023 486.741 608.867 480.312 608.784 474.913C608.702 468.896 605.858 463.126 603.179 458.222L602.273 456.573C599.635 451.793 596.956 446.847 595.926 441.407C592.835 425.129 605.323 411.281 610.845 406.088C615.378 401.844 620.447 398.052 625.352 394.425C630.792 390.387 636.396 386.224 641.259 381.402C652.057 370.646 656.714 357.788 653.664 347.032C650.779 336.811 642.207 330.341 633.1 323.499C628.896 320.326 624.527 317.07 620.818 313.402C609.897 302.605 603.344 286.326 602.767 268.77C602.314 254.057 605.652 238.479 613.029 221.17C613.194 220.758 613.689 220.552 614.101 220.758C614.513 220.922 614.719 221.417 614.513 221.829C607.259 238.891 603.921 254.263 604.416 268.729C604.952 285.873 611.381 301.739 621.972 312.249C625.599 315.834 629.885 319.09 634.047 322.222C642.949 328.939 652.181 335.863 655.189 346.619C658.404 357.953 653.582 371.429 642.372 382.598C637.427 387.502 631.781 391.705 626.3 395.785C621.436 399.412 616.409 403.121 611.958 407.325C606.641 412.312 594.566 425.664 597.492 441.16C598.481 446.353 601.119 451.175 603.674 455.832L604.581 457.48C607.342 462.549 610.268 468.484 610.392 474.913C610.474 480.93 607.259 488.059 600.913 490.12C600.913 490.12 600.789 490.161 600.707 490.161Z" fill="#7D97F4"/>
<path d="M343.914 156.467C340.988 156.467 338.598 154.076 338.598 151.15V118.263C338.598 109.114 346.057 101.655 355.206 101.655H377.955C380.881 101.655 383.272 104.045 383.272 106.971C383.272 109.897 380.881 112.287 377.955 112.287H355.206C351.909 112.287 349.23 114.966 349.23 118.263V151.15C349.23 154.076 346.881 156.467 343.914 156.467Z" fill="url(#paint12_linear)"/>
<path d="M564.482 156.467C561.556 156.467 559.165 154.076 559.165 151.15V118.263C559.165 114.966 556.486 112.287 553.189 112.287H530.44C527.514 112.287 525.124 109.897 525.124 106.971C525.124 104.045 527.514 101.654 530.44 101.654H553.189C562.339 101.654 569.798 109.114 569.798 118.263V151.15C569.798 154.076 567.408 156.467 564.482 156.467Z" fill="url(#paint13_linear)"/>
<path d="M377.996 416.597H355.247C346.098 416.597 338.639 409.138 338.639 399.989V367.102C338.639 364.176 341.029 361.785 343.955 361.785C346.881 361.785 349.271 364.176 349.271 367.102V399.989C349.271 403.286 351.95 405.965 355.247 405.965H377.996C380.922 405.965 383.313 408.355 383.313 411.281C383.313 414.207 380.922 416.597 377.996 416.597Z" fill="url(#paint14_linear)"/>
<path d="M553.189 416.598H530.44C527.514 416.598 525.124 414.207 525.124 411.281C525.124 408.355 527.514 405.965 530.44 405.965H553.189C556.486 405.965 559.165 403.286 559.165 399.989V367.102C559.165 364.176 561.555 361.786 564.481 361.786C567.407 361.786 569.797 364.176 569.797 367.102V399.989C569.797 409.138 562.338 416.598 553.189 416.598Z" fill="url(#paint15_linear)"/>
<path d="M547.708 400.072H360.399C357.308 400.072 354.835 397.558 354.835 394.508V122.92C354.835 119.829 357.349 117.356 360.399 117.356H547.708C550.799 117.356 553.271 119.87 553.271 122.92V394.467C553.271 397.558 550.799 400.072 547.708 400.072ZM360.399 119.005C358.214 119.005 356.442 120.777 356.442 122.961V394.508C356.442 396.692 358.214 398.464 360.399 398.464H547.708C549.892 398.464 551.664 396.692 551.664 394.508V122.92C551.664 120.736 549.892 118.964 547.708 118.964H360.399V119.005Z" fill="url(#paint16_linear)"/>
<path d="M521.682 330.015C524.24 327.456 524.241 323.307 521.682 320.748C519.123 318.189 514.974 318.189 512.415 320.748C509.856 323.307 509.856 327.456 512.415 330.015C514.974 332.574 519.123 332.574 521.682 330.015Z" fill="#91B3FA"/>
<path d="M517.046 326.178C516.799 326.178 516.551 326.054 516.386 325.848C516.139 325.477 516.222 324.983 516.593 324.694L586.117 274.786C586.241 274.704 586.406 274.621 586.612 274.621H821.356C821.81 274.621 822.18 274.992 822.18 275.446C822.18 275.899 821.81 276.27 821.356 276.27H586.859L517.54 326.013C517.376 326.136 517.211 326.178 517.046 326.178Z" fill="#91B3FA"/>
<path d="M368.027 254.043C371.551 253.217 373.737 249.692 372.912 246.168C372.086 242.645 368.56 240.458 365.036 241.284C361.513 242.11 359.326 245.635 360.152 249.159C360.978 252.682 364.504 254.869 368.027 254.043Z" fill="#91B3FA"/>
<path d="M366.539 248.493C366.374 248.493 366.21 248.452 366.045 248.328L296.726 198.585H62.229C61.7757 198.585 61.4048 198.214 61.4048 197.761C61.4048 197.308 61.7757 196.937 62.229 196.937H296.973C297.138 196.937 297.303 196.978 297.468 197.102L366.993 247.01C367.364 247.257 367.446 247.793 367.199 248.164C367.034 248.37 366.787 248.493 366.539 248.493Z" fill="#91B3FA"/>
<path d="M873.696 222.406H725.662C725.208 222.406 724.837 222.035 724.837 221.582V129.967C724.837 129.514 725.208 129.143 725.662 129.143H873.696C874.149 129.143 874.52 129.514 874.52 129.967V221.582C874.52 222.035 874.149 222.406 873.696 222.406ZM726.445 220.757H872.871V130.791H726.445V220.757Z" fill="white"/>
<path d="M800.42 201.553C800.214 201.553 800.008 201.553 799.761 201.553C781.133 201.8 758.054 190.961 748.204 166.11C747.627 164.709 748.287 163.102 749.647 162.443C750.43 162.072 769.346 153.417 782.905 154.53C792.219 155.313 797.329 157.209 799.761 158.445C802.192 157.209 807.303 155.313 816.617 154.53C830.175 153.376 849.051 162.072 849.875 162.443C851.235 163.061 851.894 164.668 851.317 166.11C841.591 190.632 818.883 201.553 800.42 201.553ZM799.761 195.824H799.802C811.795 195.989 834.297 189.931 844.888 166.564C839.448 164.338 826.425 159.475 817.07 160.258C805.448 161.247 801.533 164.009 801.492 164.05C800.42 164.915 799.019 164.915 797.989 164.009C797.989 164.009 794.032 161.247 782.452 160.258C773.097 159.475 760.074 164.297 754.634 166.564C765.266 189.972 787.727 195.989 799.72 195.824H799.761Z" fill="white"/>
<path d="M836.357 171.056C836.357 171.056 819.955 182.513 799.761 182.513C779.567 182.513 763.165 171.056 763.165 171.056C763.165 171.056 779.567 168.336 799.761 168.336C819.955 168.336 836.357 171.056 836.357 171.056Z" fill="white"/>
<path d="M717.667 290.777C717.667 293.085 715.771 294.898 713.505 294.898C711.197 294.898 709.383 293.002 709.383 290.735C709.383 288.428 711.279 286.614 713.546 286.614C715.812 286.614 717.667 288.51 717.667 290.777Z" fill="url(#paint17_linear)"/>
<path d="M717.542 290.776C717.542 293.001 715.729 294.773 713.503 294.773C711.278 294.773 709.506 292.96 709.506 290.735C709.506 288.509 711.319 286.737 713.545 286.737C715.77 286.778 717.542 288.592 717.542 290.776Z" fill="url(#paint18_linear)"/>
<path d="M717.666 315.957C717.666 318.265 715.771 320.078 713.504 320.078C711.196 320.078 709.383 318.183 709.383 315.916C709.383 313.608 711.279 311.795 713.545 311.795C715.812 311.795 717.666 313.691 717.666 315.957Z" fill="url(#paint19_linear)"/>
<path d="M717.542 315.956C717.542 318.182 715.729 319.954 713.503 319.954C711.278 319.954 709.506 318.141 709.506 315.915C709.506 313.69 711.319 311.918 713.545 311.918C715.77 311.918 717.542 313.731 717.542 315.956Z" fill="url(#paint20_linear)"/>
<path d="M713.504 345.259C715.803 345.259 717.667 343.395 717.667 341.097C717.667 338.798 715.803 336.934 713.504 336.934C711.205 336.934 709.342 338.798 709.342 341.097C709.342 343.395 711.205 345.259 713.504 345.259Z" fill="url(#paint21_linear)"/>
<path d="M717.542 341.137C717.542 343.363 715.729 345.135 713.503 345.135C711.278 345.135 709.506 343.321 709.506 341.096C709.506 338.87 711.319 337.098 713.545 337.098C715.77 337.098 717.542 338.912 717.542 341.137Z" fill="url(#paint22_linear)"/>
<path d="M724.054 290.57V291.271C724.095 293.167 725.291 294.692 726.774 294.692L838.006 294.856C839.531 294.856 840.726 293.249 840.726 291.271C840.726 289.334 839.531 287.768 838.047 287.727L726.815 286.861C725.249 286.861 724.013 288.51 724.054 290.57Z" fill="url(#paint23_linear)"/>
<path d="M724.054 315.628V316.328C724.095 318.224 725.291 319.749 726.774 319.749L838.006 319.914C839.531 319.914 840.726 318.307 840.726 316.328C840.726 314.391 839.531 312.825 838.047 312.784L726.815 311.919C725.249 311.877 724.013 313.567 724.054 315.628Z" fill="url(#paint24_linear)"/>
<path d="M724.054 340.684V341.385C724.095 343.281 725.291 344.806 726.774 344.806L838.006 344.971C839.531 344.971 840.726 343.363 840.726 341.385C840.726 339.448 839.531 337.882 838.047 337.841L726.815 336.975C725.249 336.934 724.013 338.624 724.054 340.684Z" fill="url(#paint25_linear)"/>
<path d="M168.68 217.213C168.68 219.521 170.576 221.334 172.843 221.334C175.15 221.334 176.964 219.438 176.964 217.172C176.964 214.864 175.068 213.051 172.801 213.051C170.535 213.051 168.68 214.905 168.68 217.213Z" fill="url(#paint26_linear)"/>
<path d="M168.803 217.212C168.803 219.438 170.617 221.21 172.842 221.21C175.067 221.21 176.84 219.396 176.84 217.171C176.84 214.945 175.026 213.173 172.801 213.173C170.575 213.173 168.803 214.987 168.803 217.212Z" fill="#91B3FA"/>
<path d="M168.68 242.394C168.68 244.701 170.576 246.515 172.843 246.515C175.15 246.515 176.964 244.619 176.964 242.352C176.964 240.045 175.068 238.231 172.801 238.231C170.535 238.231 168.68 240.086 168.68 242.394Z" fill="url(#paint27_linear)"/>
<path d="M168.803 242.393C168.803 244.618 170.617 246.39 172.842 246.39C175.067 246.39 176.84 244.577 176.84 242.352C176.84 240.126 175.026 238.354 172.801 238.354C170.575 238.354 168.803 240.167 168.803 242.393Z" fill="#91B3FA"/>
<path d="M168.68 267.533C168.68 269.841 170.576 271.654 172.843 271.654C175.15 271.654 176.964 269.758 176.964 267.492C176.964 265.184 175.068 263.371 172.801 263.371C170.535 263.371 168.68 265.266 168.68 267.533Z" fill="url(#paint28_linear)"/>
<path d="M168.803 267.532C168.803 269.758 170.617 271.53 172.842 271.53C175.067 271.53 176.84 269.717 176.84 267.491C176.84 265.266 175.026 263.494 172.801 263.494C170.575 263.535 168.803 265.348 168.803 267.532Z" fill="#91B3FA"/>
<path d="M162.292 217.007V217.707C162.251 219.603 161.056 221.128 159.572 221.128L48.3406 221.293C46.8158 221.293 45.6206 219.685 45.6206 217.707C45.6206 215.77 46.8158 214.204 48.2994 214.163L159.531 213.298C161.097 213.256 162.333 214.946 162.292 217.007Z" fill="#91B3FA"/>
<path d="M162.292 242.023V242.723C162.251 244.619 161.056 246.144 159.572 246.144L48.3406 246.309C46.8158 246.309 45.6206 244.701 45.6206 242.723C45.6206 240.786 46.8158 239.22 48.2994 239.179L159.531 238.314C161.097 238.314 162.333 240.003 162.292 242.023Z" fill="#91B3FA"/>
<path d="M162.292 267.08V267.78C162.251 269.676 161.056 271.201 159.572 271.201L48.3406 271.366C46.8158 271.366 45.6206 269.758 45.6206 267.78C45.6206 265.843 46.8158 264.277 48.2994 264.236L159.531 263.371C161.097 263.371 162.333 265.06 162.292 267.08Z" fill="#91B3FA"/>
<path d="M238.741 185.892H90.6656C90.2122 185.892 89.8413 185.521 89.8413 185.068V93.4533C89.8413 92.9999 90.2122 92.629 90.6656 92.629H238.699C239.153 92.629 239.524 92.9999 239.524 93.4533V185.068C239.565 185.521 239.194 185.892 238.741 185.892ZM91.4898 184.244H237.916V94.2775H91.4898V184.244Z" fill="white"/>
<path d="M161.18 172.251C131.301 172.251 107.645 145.01 106.656 143.856C105.749 142.784 105.749 141.218 106.656 140.147C107.645 138.993 131.301 111.751 161.18 111.751C191.059 111.751 214.714 138.993 215.703 140.147C216.61 141.218 216.61 142.784 215.703 143.856C214.714 145.01 191.059 172.251 161.18 172.251ZM112.714 142.001C115.063 144.474 119.72 148.966 125.943 153.458C134.227 159.434 147.044 166.522 161.18 166.522C175.315 166.522 188.132 159.393 196.416 153.458C202.639 148.966 207.296 144.433 209.645 142.001C207.296 139.528 202.639 135.036 196.416 130.544C188.132 124.568 175.315 117.48 161.18 117.48C147.044 117.48 134.227 124.61 125.943 130.544C119.72 134.995 115.063 139.528 112.714 142.001Z" fill="white"/>
<path d="M161.18 166.523C147.662 166.523 136.659 155.519 136.659 142.001C136.659 128.484 147.662 117.48 161.18 117.48C174.697 117.48 185.701 128.484 185.701 142.001C185.701 155.519 174.697 166.523 161.18 166.523ZM161.18 123.168C150.794 123.168 142.387 131.616 142.387 141.96C142.387 152.346 150.836 160.753 161.18 160.753C171.565 160.753 179.973 152.304 179.973 141.96C179.973 131.616 171.524 123.168 161.18 123.168Z" fill="white"/>
<path d="M161.18 153.87C167.735 153.87 173.049 148.556 173.049 142.001C173.049 135.446 167.735 130.132 161.18 130.132C154.625 130.132 149.311 135.446 149.311 142.001C149.311 148.556 154.625 153.87 161.18 153.87Z" fill="white"/>
<defs>
<linearGradient id="paint0_linear" x1="333.281" y1="-82.7928" x2="615.776" y2="717.9" gradientUnits="userSpaceOnUse">
<stop stop-color="#DAE3FE"/>
<stop offset="1" stop-color="#E9EFFD"/>
</linearGradient>
<linearGradient id="paint1_linear" x1="545.75" y1="-41.3446" x2="388.859" y2="642.465" gradientUnits="userSpaceOnUse">
<stop stop-color="#09005D"/>
<stop offset="1" stop-color="#1A0F91"/>
</linearGradient>
<linearGradient id="paint2_linear" x1="455.836" y1="278.347" x2="454.6" y2="586.232" gradientUnits="userSpaceOnUse">
<stop stop-color="#FF928E"/>
<stop offset="1" stop-color="#FEB3B1"/>
</linearGradient>
<linearGradient id="paint3_linear" x1="452.544" y1="539.357" x2="463.995" y2="729.122" gradientUnits="userSpaceOnUse">
<stop stop-color="#4042E2"/>
<stop offset="1" stop-color="#4F52FF"/>
</linearGradient>
<linearGradient id="paint4_linear" x1="444.466" y1="26.4118" x2="459.304" y2="366.444" gradientUnits="userSpaceOnUse">
<stop stop-color="#FF928E"/>
<stop offset="1" stop-color="#FEB3B1"/>
</linearGradient>
<linearGradient id="paint5_linear" x1="556.431" y1="21.526" x2="571.269" y2="361.56" gradientUnits="userSpaceOnUse">
<stop stop-color="#FF928E"/>
<stop offset="1" stop-color="#FEB3B1"/>
</linearGradient>
<linearGradient id="paint6_linear" x1="348.973" y1="-19.6027" x2="334.135" y2="320.431" gradientUnits="userSpaceOnUse">
<stop stop-color="#FF928E"/>
<stop offset="1" stop-color="#FEB3B1"/>
</linearGradient>
<linearGradient id="paint7_linear" x1="504.581" y1="-37.9203" x2="374.513" y2="528.979" gradientUnits="userSpaceOnUse">
<stop stop-color="#09005D"/>
<stop offset="1" stop-color="#1A0F91"/>
</linearGradient>
<linearGradient id="paint8_linear" x1="393.981" y1="58.1598" x2="393.981" y2="148.423" gradientUnits="userSpaceOnUse">
<stop stop-color="#09005D"/>
<stop offset="1" stop-color="#1A0F91"/>
</linearGradient>
<linearGradient id="paint9_linear" x1="566.753" y1="56.5442" x2="542.023" y2="134.443" gradientUnits="userSpaceOnUse">
<stop stop-color="#09005D"/>
<stop offset="1" stop-color="#1A0F91"/>
</linearGradient>
<linearGradient id="paint10_linear" x1="489.935" y1="45.2981" x2="500.443" y2="125.04" gradientUnits="userSpaceOnUse">
<stop stop-color="#09005D"/>
<stop offset="1" stop-color="#1A0F91"/>
</linearGradient>
<linearGradient id="paint11_linear" x1="430.522" y1="-76.1593" x2="420.013" y2="3.58206" gradientUnits="userSpaceOnUse">
<stop stop-color="#09005D"/>
<stop offset="1" stop-color="#1A0F91"/>
</linearGradient>
<linearGradient id="paint12_linear" x1="338.616" y1="129.068" x2="383.296" y2="129.068" gradientUnits="userSpaceOnUse">
<stop stop-color="#DAE3FE"/>
<stop offset="1" stop-color="#E9EFFD"/>
</linearGradient>
<linearGradient id="paint13_linear" x1="525.11" y1="129.068" x2="569.79" y2="129.068" gradientUnits="userSpaceOnUse">
<stop stop-color="#DAE3FE"/>
<stop offset="1" stop-color="#E9EFFD"/>
</linearGradient>
<linearGradient id="paint14_linear" x1="338.616" y1="389.178" x2="383.296" y2="389.178" gradientUnits="userSpaceOnUse">
<stop stop-color="#DAE3FE"/>
<stop offset="1" stop-color="#E9EFFD"/>
</linearGradient>
<linearGradient id="paint15_linear" x1="525.11" y1="389.178" x2="569.79" y2="389.178" gradientUnits="userSpaceOnUse">
<stop stop-color="#DAE3FE"/>
<stop offset="1" stop-color="#E9EFFD"/>
</linearGradient>
<linearGradient id="paint16_linear" x1="354.81" y1="258.714" x2="553.289" y2="258.714" gradientUnits="userSpaceOnUse">
<stop stop-color="#DAE3FE"/>
<stop offset="1" stop-color="#E9EFFD"/>
</linearGradient>
<linearGradient id="paint17_linear" x1="720.31" y1="284.235" x2="707.536" y2="296.503" gradientUnits="userSpaceOnUse">
<stop stop-color="#53D8FF"/>
<stop offset="1" stop-color="#3840F7"/>
</linearGradient>
<linearGradient id="paint18_linear" x1="709.495" y1="290.764" x2="717.524" y2="290.764" gradientUnits="userSpaceOnUse">
<stop stop-color="#DAE3FE"/>
<stop offset="1" stop-color="#E9EFFD"/>
</linearGradient>
<linearGradient id="paint19_linear" x1="720.309" y1="309.407" x2="707.535" y2="321.675" gradientUnits="userSpaceOnUse">
<stop stop-color="#53D8FF"/>
<stop offset="1" stop-color="#3840F7"/>
</linearGradient>
<linearGradient id="paint20_linear" x1="709.495" y1="315.936" x2="717.524" y2="315.936" gradientUnits="userSpaceOnUse">
<stop stop-color="#DAE3FE"/>
<stop offset="1" stop-color="#E9EFFD"/>
</linearGradient>
<linearGradient id="paint21_linear" x1="720.309" y1="334.58" x2="707.535" y2="346.847" gradientUnits="userSpaceOnUse">
<stop stop-color="#53D8FF"/>
<stop offset="1" stop-color="#3840F7"/>
</linearGradient>
<linearGradient id="paint22_linear" x1="709.495" y1="341.108" x2="717.524" y2="341.108" gradientUnits="userSpaceOnUse">
<stop stop-color="#DAE3FE"/>
<stop offset="1" stop-color="#E9EFFD"/>
</linearGradient>
<linearGradient id="paint23_linear" x1="724.048" y1="290.887" x2="840.725" y2="290.887" gradientUnits="userSpaceOnUse">
<stop stop-color="#DAE3FE"/>
<stop offset="1" stop-color="#E9EFFD"/>
</linearGradient>
<linearGradient id="paint24_linear" x1="724.048" y1="315.937" x2="840.725" y2="315.937" gradientUnits="userSpaceOnUse">
<stop stop-color="#DAE3FE"/>
<stop offset="1" stop-color="#E9EFFD"/>
</linearGradient>
<linearGradient id="paint25_linear" x1="724.048" y1="340.986" x2="840.725" y2="340.986" gradientUnits="userSpaceOnUse">
<stop stop-color="#DAE3FE"/>
<stop offset="1" stop-color="#E9EFFD"/>
</linearGradient>
<linearGradient id="paint26_linear" x1="166.037" y1="210.651" x2="178.811" y2="222.918" gradientUnits="userSpaceOnUse">
<stop stop-color="#53D8FF"/>
<stop offset="1" stop-color="#3840F7"/>
</linearGradient>
<linearGradient id="paint27_linear" x1="166.037" y1="235.823" x2="178.811" y2="248.091" gradientUnits="userSpaceOnUse">
<stop stop-color="#53D8FF"/>
<stop offset="1" stop-color="#3840F7"/>
</linearGradient>
<linearGradient id="paint28_linear" x1="166.037" y1="260.995" x2="178.811" y2="273.263" gradientUnits="userSpaceOnUse">
<stop stop-color="#53D8FF"/>
<stop offset="1" stop-color="#3840F7"/>
</linearGradient>
</defs>
</svg>
